<svg xmlns="http://www.w3.org/2000/svg" viewBox="0 0 110 110"><defs><style>.cls-1{fill:#e6e6e6;}</style></defs><title>Artboard 4</title><g id="Layer_10" data-name="Layer 10"><circle class="cls-1" cx="49.5" cy="5.5" r="1.5"/><circle class="cls-1" cx="38.5" cy="5.5" r="1.5"/><circle class="cls-1" cx="27.5" cy="5.5" r="1.5"/><circle class="cls-1" cx="16.5" cy="5.5" r="1.5"/><circle class="cls-1" cx="5.5" cy="5.5" r="1.5"/><circle class="cls-1" cx="93.5" cy="5.5" r="1.5"/><circle class="cls-1" cx="82.5" cy="5.5" r="1.5"/><circle class="cls-1" cx="104.5" cy="5.5" r="1.5"/><circle class="cls-1" cx="71.5" cy="5.5" r="1.5"/><circle class="cls-1" cx="60.5" cy="5.5" r="1.5"/><circle class="cls-1" cx="49.5" cy="16.5" r="1.5"/><circle class="cls-1" cx="38.5" cy="16.5" r="1.5"/><circle class="cls-1" cx="27.5" cy="16.5" r="1.5"/><circle class="cls-1" cx="16.5" cy="16.5" r="1.5"/><circle class="cls-1" cx="5.5" cy="16.5" r="1.5"/><circle class="cls-1" cx="93.5" cy="16.5" r="1.5"/><circle class="cls-1" cx="82.5" cy="16.5" r="1.5"/><circle class="cls-1" cx="104.5" cy="16.5" r="1.5"/><circle class="cls-1" cx="71.5" cy="16.5" r="1.5"/><circle class="cls-1" cx="60.5" cy="16.5" r="1.5"/><circle class="cls-1" cx="49.5" cy="27.5" r="1.5"/><circle class="cls-1" cx="38.5" cy="27.5" r="1.5"/><circle class="cls-1" cx="27.5" cy="27.5" r="1.5"/><circle class="cls-1" cx="16.5" cy="27.5" r="1.5"/><circle class="cls-1" cx="5.5" cy="27.5" r="1.5"/><circle class="cls-1" cx="93.5" cy="27.5" r="1.5"/><circle class="cls-1" cx="82.5" cy="27.5" r="1.5"/><circle class="cls-1" cx="104.5" cy="27.5" r="1.5"/><circle class="cls-1" cx="71.5" cy="27.5" r="1.5"/><circle class="cls-1" cx="60.5" cy="27.5" r="1.5"/><circle class="cls-1" cx="49.5" cy="38.5" r="1.5"/><circle class="cls-1" cx="38.5" cy="38.5" r="1.5"/><circle class="cls-1" cx="27.5" cy="38.5" r="1.5"/><circle class="cls-1" cx="16.5" cy="38.5" r="1.5"/><circle class="cls-1" cx="5.5" cy="38.5" r="1.5"/><circle class="cls-1" cx="93.5" cy="38.5" r="1.5"/><circle class="cls-1" cx="82.5" cy="38.5" r="1.5"/><circle class="cls-1" cx="104.5" cy="38.5" r="1.5"/><circle class="cls-1" cx="71.5" cy="38.5" r="1.5"/><circle class="cls-1" cx="60.5" cy="38.5" r="1.5"/><circle class="cls-1" cx="49.5" cy="49.5" r="1.5"/><circle class="cls-1" cx="38.5" cy="49.5" r="1.5"/><circle class="cls-1" cx="27.5" cy="49.5" r="1.5"/><circle class="cls-1" cx="16.5" cy="49.5" r="1.5"/><circle class="cls-1" cx="5.5" cy="49.5" r="1.5"/><circle class="cls-1" cx="93.5" cy="49.5" r="1.5"/><circle class="cls-1" cx="82.5" cy="49.5" r="1.5"/><circle class="cls-1" cx="104.5" cy="49.5" r="1.5"/><circle class="cls-1" cx="71.5" cy="49.5" r="1.5"/><circle class="cls-1" cx="60.5" cy="49.5" r="1.5"/><circle class="cls-1" cx="49.5" cy="60.5" r="1.5"/><circle class="cls-1" cx="38.5" cy="60.5" r="1.5"/><circle class="cls-1" cx="27.5" cy="60.5" r="1.5"/><circle class="cls-1" cx="16.5" cy="60.5" r="1.5"/><circle class="cls-1" cx="5.5" cy="60.5" r="1.5"/><circle class="cls-1" cx="93.5" cy="60.5" r="1.5"/><circle class="cls-1" cx="82.5" cy="60.5" r="1.5"/><circle class="cls-1" cx="104.5" cy="60.5" r="1.5"/><circle class="cls-1" cx="71.5" cy="60.5" r="1.5"/><circle class="cls-1" cx="60.5" cy="60.5" r="1.5"/><circle class="cls-1" cx="49.5" cy="71.5" r="1.5"/><circle class="cls-1" cx="38.5" cy="71.5" r="1.5"/><circle class="cls-1" cx="27.5" cy="71.5" r="1.5"/><circle class="cls-1" cx="16.5" cy="71.5" r="1.5"/><circle class="cls-1" cx="5.5" cy="71.5" r="1.5"/><circle class="cls-1" cx="93.5" cy="71.5" r="1.5"/><circle class="cls-1" cx="82.5" cy="71.5" r="1.5"/><circle class="cls-1" cx="104.5" cy="71.5" r="1.5"/><circle class="cls-1" cx="71.5" cy="71.5" r="1.5"/><circle class="cls-1" cx="60.5" cy="71.5" r="1.5"/><circle class="cls-1" cx="49.5" cy="82.5" r="1.5"/><circle class="cls-1" cx="38.5" cy="82.5" r="1.5"/><circle class="cls-1" cx="27.5" cy="82.5" r="1.5"/><circle class="cls-1" cx="16.5" cy="82.5" r="1.5"/><circle class="cls-1" cx="5.5" cy="82.5" r="1.5"/><circle class="cls-1" cx="93.5" cy="82.5" r="1.5"/><circle class="cls-1" cx="82.5" cy="82.5" r="1.5"/><circle class="cls-1" cx="104.5" cy="82.5" r="1.5"/><circle class="cls-1" cx="71.5" cy="82.5" r="1.5"/><circle class="cls-1" cx="60.5" cy="82.5" r="1.5"/><circle class="cls-1" cx="49.5" cy="93.5" r="1.5"/><circle class="cls-1" cx="38.5" cy="93.5" r="1.5"/><circle class="cls-1" cx="27.5" cy="93.5" r="1.5"/><circle class="cls-1" cx="16.5" cy="93.5" r="1.5"/><circle class="cls-1" cx="5.5" cy="93.5" r="1.5"/><circle class="cls-1" cx="93.5" cy="93.5" r="1.5"/><circle class="cls-1" cx="82.5" cy="93.5" r="1.5"/><circle class="cls-1" cx="104.5" cy="93.5" r="1.5"/><circle class="cls-1" cx="71.5" cy="93.5" r="1.5"/><circle class="cls-1" cx="60.5" cy="93.5" r="1.5"/><circle class="cls-1" cx="49.5" cy="104.5" r="1.5"/><circle class="cls-1" cx="38.5" cy="104.5" r="1.5"/><circle class="cls-1" cx="27.5" cy="104.5" r="1.5"/><circle class="cls-1" cx="16.5" cy="104.5" r="1.5"/><circle class="cls-1" cx="5.5" cy="104.5" r="1.5"/><circle class="cls-1" cx="93.5" cy="104.5" r="1.5"/><circle class="cls-1" cx="82.5" cy="104.5" r="1.5"/><circle class="cls-1" cx="104.5" cy="104.5" r="1.5"/><circle class="cls-1" cx="71.5" cy="104.5" r="1.5"/><circle class="cls-1" cx="60.5" cy="104.5" r="1.5"/></g></svg>